<svg width="28" height="27" viewBox="0 0 28 27" fill="none" xmlns="http://www.w3.org/2000/svg">
<path fill-rule="evenodd" clip-rule="evenodd" d="M12.227 1.50369C12.227 0.673223 12.9002 0 13.7307 0C14.5611 0 15.2344 0.673226 15.2344 1.50369V20.1864L24.5426 10.8782C25.1298 10.291 26.0819 10.291 26.6691 10.8782C27.2564 11.4654 27.2564 12.4175 26.6691 13.0047L15.6813 23.9926L15.7029 24.0142L13.5764 26.1407L13.5548 26.1191L13.5332 26.1407L11.4066 24.0142L11.4282 23.9926L0.440421 13.0047C-0.146807 12.4175 -0.146807 11.4654 0.440421 10.8782C1.02765 10.291 1.97973 10.291 2.56696 10.8782L12.227 20.5382V1.50369Z" fill="#05C48A"/>
</svg>
